# xmcd
#
# Track frame offsets: 
#        150
#        14514
#        33196
#        51218
#        66180
#        89498
#        111260
#        135936
#        155008
#        173975
#        195652
#        217697
#
# Disc length: 3151 seconds
#
# Revision: 0
# Processed by: cddbd v1.5.2PL0 Copyright (c) Steve Scherf et al.
# Submitted via: ExactAudioCopyFreeDBPlugin 1.0
#
DISCID=9f0c4d0c
DTITLE=Bonnie Raitt - Dig in Deep
DYEAR=2016
DGENRE=Blues
TTITLE0=All Alone with Something to Say
TTITLE1=Gypsy in Me
TTITLE2=I Knew
TTITLE3=Need You Tonight
TTITLE4=If You Need Somebody
TTITLE5=Shakin' Shakin' Shakes
TTITLE6=The Comin' Round Is Going Through
TTITLE7=The Ones We Couldn't Be
TTITLE8=Undone
TTITLE9=Unintended Consequence of Love
TTITLE10=What You're Doin' to Me
TTITLE11=You've Changed My Mind
EXTD=
EXTT0=
EXTT1=
EXTT2=
EXTT3=
EXTT4=
EXTT5=
EXTT6=
EXTT7=
EXTT8=
EXTT9=
EXTT10=
EXTT11=
PLAYORDER=
